<?xml version="1.0" encoding="UTF-8" standalone="no"?><!DOCTYPE svg PUBLIC "-//W3C//DTD SVG 1.1//EN" "http://www.w3.org/Graphics/SVG/1.1/DTD/svg11.dtd"><svg width="100%" height="100%" viewBox="0 0 71 72" version="1.1" xmlns="http://www.w3.org/2000/svg" xmlns:xlink="http://www.w3.org/1999/xlink" xml:space="preserve" xmlns:serif="http://www.serif.com/" style="fill-rule:evenodd;clip-rule:evenodd;stroke-linecap:round;stroke-linejoin:round;stroke-miterlimit:2;"><rect x="-344.467" y="-349.891" width="419.528" height="595.276" style="fill:#fff;"/><g><rect x="-0" y="0" width="70.994" height="71.221" style="fill:#fff;"/><g transform="matrix(0.099741,0,0,0.099741,-62.53,1.76932)"><text x="839.609px" y="495.003px" style="font-family:'Montserrat-Bold', 'Montserrat';font-weight:700;font-size:49.287px;fill:#19a3c3;">H<tspan x="886.826px 927.291px 964.454px 1018.92px 1042.48px 1086.88px " y="495.003px 495.003px 495.003px 495.003px 495.003px 495.003px ">ELMIAU</tspan></text><text x="846.453px" y="537.725px" style="font-family:'Montserrat-SemiBold', 'Montserrat';font-weight:600;font-size:40.104px;fill:#e8ca01;">P<tspan x="881.182px 916.514px " y="537.725px 537.725px ">RO</tspan></text><text x="956.297px" y="537.725px" style="font-family:'Montserrat-SemiBold', 'Montserrat';font-weight:600;font-size:40.104px;fill:#969696;">S<tspan x="987.137px 1016.89px 1056.68px 1092.01px " y="537.725px 537.725px 537.725px 537.725px ">TORE</tspan></text></g><path d="M37.272,40.981c-0.577,0.104 -1.17,0.158 -1.775,0.158c-1.01,-0 -1.984,-0.151 -2.903,-0.43c0.003,-1.509 0.005,-3.017 0.004,-4.525c0.733,-0.053 1.621,0.034 2.371,0.035c0.398,-0 0.786,0.005 1.183,-0.01c0.382,-0.015 0.753,-0.061 1.125,-0.078l-0.005,4.85Zm-0.453,-19.681c4.875,0.647 8.641,4.825 8.641,9.876c-0,4.437 -2.908,8.201 -6.92,9.489l0.002,-4.772c0.838,-0.288 2,-0.635 2.685,-1.267c0.66,-0.608 1.237,-1.226 1.676,-2.286c0.423,-1.016 0.659,-2.094 0.553,-3.344c-0.098,-1.146 -0.48,-2.258 -1.047,-2.949c-0.556,-0.679 -1.515,-1.338 -2.807,-0.807c-1.002,0.412 -1.41,1.082 -1.825,2.172c-0.617,1.618 -0.491,3.618 -0.497,5.447c-0.001,0.631 0.032,1.383 -0.012,2c-0.877,0.103 -3.782,0.114 -4.668,0.046c-0,-0.562 0.036,-4.365 -0.019,-4.573l-1.234,-0.007l-0.004,4.665c-1.312,0.145 -2.312,0.53 -3.055,1.553c-0.212,0.293 -0.367,0.618 -0.48,0.966c-1.421,-1.722 -2.274,-3.929 -2.274,-6.333c-0,-0.801 0.095,-1.581 0.274,-2.327c0.089,-0.002 0.138,-0.002 0.138,-0.002c0,0 1.621,0.034 2.372,0.035c0.398,-0 0.785,0.005 1.183,-0.01c0.382,-0.015 0.752,-0.061 1.125,-0.078l1.265,-0.238c0.838,-0.288 2,-0.635 2.685,-1.267c0.66,-0.608 1.236,-1.226 1.676,-2.286c0.299,-0.719 0.522,-1.915 0.567,-3.703Zm-7.975,17.29c0.13,-1.052 0.618,-2.152 2.503,-2.336c-0.001,1.326 -0.004,2.652 -0.006,3.978c-0.915,-0.421 -1.756,-0.977 -2.497,-1.642Zm9.71,-4.019c-0.028,-0.982 0.004,-2.012 0.007,-3c0.005,-1.37 -0.063,-3.918 1.094,-4.89c0.228,-0.191 0.646,-0.477 1.07,-0.37c0.319,0.08 0.668,0.467 0.812,0.675c1.075,1.547 0.817,4.29 -0.308,5.793c-0.588,0.787 -1.634,1.582 -2.675,1.792Zm-2.997,-13.358c-0.058,2.198 -0.437,3.505 -0.979,4.229c-0.589,0.787 -1.667,1.457 -2.676,1.792c-0.513,0.17 -0.742,0.224 -1.286,0.288c-0.738,0.087 -3.54,0.06 -4.409,0.049c1.445,-3.719 5.062,-6.358 9.29,-6.358l0.06,-0Z" style="fill:none;stroke:url(#_Linear1);stroke-width:0.55px;"/></g><defs><linearGradient id="_Linear1" x1="0" y1="0" x2="1" y2="0" gradientUnits="userSpaceOnUse" gradientTransform="matrix(19.9261,0,0,19.9261,25.5338,31.1758)"><stop offset="0" style="stop-color:#01d5f2;stop-opacity:1"/><stop offset="1" style="stop-color:#26709d;stop-opacity:1"/></linearGradient></defs></svg>