<?xml version="1.0" encoding="UTF-8" standalone="no"?><!DOCTYPE svg PUBLIC "-//W3C//DTD SVG 1.1//EN" "http://www.w3.org/Graphics/SVG/1.1/DTD/svg11.dtd"><svg width="100%" height="100%" viewBox="0 0 260 260" version="1.1" xmlns="http://www.w3.org/2000/svg" xmlns:xlink="http://www.w3.org/1999/xlink" xml:space="preserve" xmlns:serif="http://www.serif.com/" style="fill-rule:evenodd;clip-rule:evenodd;stroke-linejoin:round;stroke-miterlimit:2;"><rect id="logo-2025-updown-color" x="0" y="-0" width="259.2" height="259.2" style="fill:#fff;"/><g><path d="M81.542,87.472c-0,-1.993 0.792,-3.904 2.201,-5.314c1.409,-1.409 3.321,-2.201 5.314,-2.201l4.754,0l0,77.443c0,4.173 -3.383,7.556 -7.557,7.556l-4.712,0l-0,-77.484Z" style="fill:url(#_Linear1);"/><path d="M145.803,164.956c-3.363,0 -6.09,-2.726 -6.09,-6.09l0,-3.798c0,-10.167 -8.242,-18.409 -18.409,-18.409l-12.805,0c-3.671,-0.486 -7.086,-1.831 -9.756,-3.879c-3.407,-2.615 -5.322,-6.16 -5.322,-9.857l0,-21.829c0,6.229 2.475,12.203 6.879,16.607c4.405,4.404 10.378,6.879 16.607,6.879l9.587,-0c0.377,-0 0.753,0.008 1.129,0.023c0.353,-0.015 0.709,-0.023 1.066,-0.023c13.011,-0 23.575,10.563 23.575,23.574l-0,16.802l-6.461,0Z" style="fill:url(#_Linear2);"/><path d="M106.677,50.617c-0,-2.05 0.814,-4.017 2.264,-5.466c1.449,-1.45 3.416,-2.264 5.466,-2.264l4.82,-0l0,39.26c0,10.167 8.242,18.409 18.409,18.409l12.806,0c3.671,0.487 7.086,1.832 9.755,3.88c3.408,2.614 5.322,6.16 5.322,9.857l-0,21.828c-0,-6.228 -2.475,-12.202 -6.879,-16.606c-4.404,-4.405 -10.378,-6.879 -16.607,-6.879l-9.587,-0c-0.377,-0 -0.753,-0.008 -1.129,-0.024c-0.353,0.016 -0.708,0.024 -1.066,0.024c-13.011,-0 -23.574,-10.563 -23.574,-23.575l-0,-38.444Z" style="fill:url(#_Linear3);"/><path d="M177.658,157.226c0,2.05 -0.814,4.017 -2.264,5.466c-1.45,1.45 -3.416,2.264 -5.466,2.264l-4.82,0l-0,-68.095c-0,-10.167 -8.242,-18.409 -18.41,-18.409l-12.805,-0c-3.671,-0.487 -7.086,-1.832 -9.755,-3.88c-3.408,-2.614 -5.322,-6.16 -5.322,-9.857l-0,-21.828c-0,6.228 2.474,12.202 6.879,16.606c4.404,4.405 10.378,6.879 16.606,6.879l9.587,0c0.378,0 0.754,0.008 1.129,0.024c0.354,-0.016 0.709,-0.024 1.067,-0.024c13.011,0 23.574,10.564 23.574,23.575l0,67.279Z" style="fill:url(#_Linear4);"/><path d="M116.069,145.323l2.271,4.277c0.069,0.13 0.158,0.249 0.262,0.353c0.104,0.104 0.223,0.192 0.353,0.261l4.277,2.272l-4.277,2.271c-0.13,0.069 -0.249,0.157 -0.353,0.261c-0.104,0.104 -0.193,0.223 -0.262,0.353l-2.271,4.278l-2.271,-4.278c-0.069,-0.13 -0.157,-0.249 -0.261,-0.353c-0.104,-0.104 -0.224,-0.192 -0.354,-0.261l-4.277,-2.271l4.277,-2.272c0.13,-0.069 0.25,-0.157 0.354,-0.261c0.104,-0.104 0.192,-0.223 0.261,-0.353l2.271,-4.277Z" style="fill:url(#_Linear5);"/><path d="M172.043,45.609l1.198,2.255c0.036,0.069 0.082,0.132 0.137,0.187c0.055,0.055 0.118,0.101 0.187,0.137l2.255,1.198l-2.255,1.198c-0.069,0.037 -0.132,0.083 -0.187,0.138c-0.055,0.055 -0.101,0.118 -0.137,0.186l-1.198,2.256l-1.198,-2.256c-0.037,-0.068 -0.083,-0.131 -0.138,-0.186c-0.055,-0.055 -0.118,-0.101 -0.186,-0.138l-2.256,-1.198l2.256,-1.198c0.068,-0.036 0.131,-0.082 0.186,-0.137c0.055,-0.055 0.101,-0.118 0.138,-0.187l1.198,-2.255Z" style="fill:url(#_Linear6);"/><path d="M156.214,42.955l2.039,3.841c0.062,0.116 0.141,0.223 0.235,0.317c0.093,0.093 0.2,0.172 0.317,0.234l3.84,2.039l-3.84,2.04c-0.117,0.062 -0.224,0.141 -0.317,0.234c-0.094,0.094 -0.173,0.2 -0.235,0.317l-2.039,3.84l-2.039,-3.84c-0.062,-0.117 -0.141,-0.223 -0.235,-0.317c-0.093,-0.093 -0.2,-0.172 -0.317,-0.234l-3.84,-2.04l3.84,-2.039c0.117,-0.062 0.224,-0.141 0.317,-0.234c0.094,-0.094 0.173,-0.201 0.235,-0.317l2.039,-3.841Z" style="fill:url(#_Linear7);"/><path d="M140.386,45.609l1.198,2.255c0.036,0.069 0.082,0.132 0.137,0.187c0.055,0.055 0.118,0.101 0.187,0.137l2.255,1.198l-2.255,1.198c-0.069,0.037 -0.132,0.083 -0.187,0.138c-0.055,0.055 -0.101,0.118 -0.137,0.186l-1.198,2.256l-1.198,-2.256c-0.037,-0.068 -0.083,-0.131 -0.138,-0.186c-0.055,-0.055 -0.118,-0.101 -0.186,-0.138l-2.256,-1.198l2.256,-1.198c0.068,-0.036 0.131,-0.082 0.186,-0.137c0.055,-0.055 0.101,-0.118 0.138,-0.187l1.198,-2.255Z" style="fill:url(#_Linear8);"/><path d="M87.677,53.956l1.802,3.395c0.055,0.104 0.125,0.198 0.208,0.281c0.082,0.083 0.177,0.152 0.28,0.207l3.395,1.803l-3.395,1.803c-0.103,0.055 -0.198,0.125 -0.28,0.207c-0.083,0.083 -0.153,0.177 -0.208,0.281l-1.802,3.395l-1.803,-3.395c-0.055,-0.104 -0.125,-0.198 -0.208,-0.281c-0.082,-0.082 -0.177,-0.152 -0.28,-0.207l-3.395,-1.803l3.395,-1.803c0.103,-0.055 0.198,-0.124 0.28,-0.207c0.083,-0.083 0.153,-0.177 0.208,-0.281l1.803,-3.395Z" style="fill:url(#_Linear9);"/><path d="M87.677,68.637l1.23,2.317c0.037,0.071 0.085,0.135 0.141,0.192c0.057,0.056 0.121,0.104 0.192,0.141l2.317,1.23l-2.317,1.231c-0.071,0.037 -0.135,0.085 -0.192,0.141c-0.056,0.057 -0.104,0.121 -0.141,0.192l-1.23,2.316l-1.231,-2.316c-0.037,-0.071 -0.085,-0.135 -0.141,-0.192c-0.057,-0.056 -0.121,-0.104 -0.192,-0.141l-2.316,-1.231l2.316,-1.23c0.071,-0.037 0.135,-0.085 0.192,-0.141c0.056,-0.057 0.104,-0.121 0.141,-0.192l1.231,-2.317Z" style="fill:url(#_Linear10);"/><path d="M87.677,42.887l1.23,2.317c0.037,0.07 0.085,0.135 0.141,0.191c0.057,0.056 0.121,0.104 0.192,0.141l2.317,1.231l-2.317,1.23c-0.071,0.037 -0.135,0.085 -0.192,0.142c-0.056,0.056 -0.104,0.12 -0.141,0.191l-1.23,2.317l-1.231,-2.317c-0.037,-0.071 -0.085,-0.135 -0.141,-0.191c-0.057,-0.057 -0.121,-0.105 -0.192,-0.142l-2.316,-1.23l2.316,-1.231c0.071,-0.037 0.135,-0.085 0.192,-0.141c0.056,-0.056 0.104,-0.121 0.141,-0.191l1.231,-2.317Z" style="fill:url(#_Linear11);"/><path d="M88.903,184.217c-1.623,-0 -2.775,0.846 -3.481,2.022l0,-7.055c0,-0.212 -0.141,-0.353 -0.352,-0.353l-3.175,0c-0.212,0 -0.353,0.141 -0.353,0.353l-0,16.462c-0,0.212 0.141,0.353 0.353,0.353l3.175,0c0.211,0 0.352,-0.141 0.352,-0.353l0,-5.832c0,-0.564 0.541,-1.976 1.976,-1.976c0.799,0 1.834,0.4 1.834,2.235l0,5.573c0,0.212 0.141,0.353 0.353,0.353l3.175,0c0.211,0 0.353,-0.141 0.353,-0.353l-0,-6.396c-0,-3.081 -1.905,-5.033 -4.21,-5.033Z" style="fill:url(#_Linear12);fill-rule:nonzero;"/><path d="M106.188,190.096c0,-3.222 -2.163,-5.879 -5.526,-5.879c-3.34,-0 -5.88,2.657 -5.88,6.044c0,3.386 2.493,6.044 6.185,6.044c1.647,-0 3.152,-0.682 4.257,-1.764c0.188,-0.188 0.212,-0.353 0.047,-0.517l-1.364,-1.341c-0.141,-0.165 -0.282,-0.188 -0.517,-0.047c-0.823,0.494 -1.435,0.588 -2.07,0.588c-1.387,-0 -2.352,-0.517 -2.681,-1.599l6.656,-0c0.752,-0 0.893,-0.518 0.893,-1.529Zm-5.479,-2.634c0.964,0 1.787,0.518 2.022,1.74l-4.162,0c0.258,-1.222 1.152,-1.74 2.14,-1.74Z" style="fill:url(#_Linear13);fill-rule:nonzero;"/><path d="M107.835,179.184l-0,16.462c-0,0.212 0.141,0.353 0.352,0.353l3.175,0c0.212,0 0.353,-0.141 0.353,-0.353l-0,-16.462c-0,-0.212 -0.141,-0.353 -0.353,-0.353l-3.175,0c-0.211,0 -0.352,0.141 -0.352,0.353Z" style="fill:url(#_Linear14);fill-rule:nonzero;"/><path d="M128.506,184.217c-1.763,-0 -3.127,0.846 -3.951,2.069c-0.776,-1.317 -2.046,-2.069 -3.48,-2.069c-1.623,-0 -2.775,0.846 -3.481,2.022l-0.094,-1.411c-0.023,-0.211 -0.141,-0.353 -0.353,-0.353l-3.08,0c-0.212,0 -0.353,0.142 -0.353,0.353l-0,10.818c-0,0.212 0.141,0.353 0.353,0.353l3.175,0c0.211,0 0.352,-0.141 0.352,-0.353l0,-5.832c0,-0.564 0.541,-1.976 1.976,-1.976c0.799,0 1.834,0.4 1.834,2.235l0,5.573c0,0.212 0.141,0.353 0.353,0.353l3.175,0c0.211,0 0.353,-0.141 0.353,-0.353l-0,-6.114c-0,-0.659 0.705,-1.694 1.975,-1.694c0.8,0 1.858,0.4 1.858,2.235l-0,5.573c-0,0.212 0.141,0.353 0.353,0.353l3.175,0c0.211,0 0.352,-0.141 0.352,-0.353l0,-6.396c0,-3.081 -1.905,-5.033 -4.492,-5.033Z" style="fill:url(#_Linear15);fill-rule:nonzero;"/><path d="M135.068,184.828l-0,10.818c-0,0.212 0.141,0.353 0.353,0.353l3.174,0c0.212,0 0.353,-0.141 0.353,-0.353l0,-10.818c0,-0.211 -0.141,-0.353 -0.353,-0.353l-3.174,0c-0.212,0 -0.353,0.142 -0.353,0.353Z" style="fill:url(#_Linear16);"/><path d="M93.512,204.46l-2.869,0c-0.211,0 -0.329,0.142 -0.353,0.353l-0.07,0.87c-0.8,-0.893 -1.858,-1.505 -3.151,-1.505c-3.175,0 -5.527,2.705 -5.527,6.068c-0,3.363 2.352,6.067 5.527,6.067c1.34,0 2.375,-0.588 3.151,-1.411l0.07,0.729c0.024,0.212 0.142,0.353 0.353,0.353l2.869,0c0.212,0 0.353,-0.141 0.353,-0.353l0,-10.818c0,-0.211 -0.141,-0.353 -0.353,-0.353Zm-5.95,8.302c-1.317,0 -2.281,-1.105 -2.281,-2.54c0,-1.434 0.964,-2.493 2.281,-2.493c1.341,0 2.305,1.153 2.305,2.493c0,1.364 -0.964,2.54 -2.305,2.54Z" style="fill:url(#_Linear17);"/><path d="M110.657,204.202c-1.764,-0 -3.128,0.846 -3.951,2.069c-0.776,-1.317 -2.046,-2.069 -3.481,-2.069c-1.623,-0 -2.775,0.846 -3.48,2.022l-0.095,-1.411c-0.023,-0.211 -0.141,-0.353 -0.352,-0.353l-3.081,0c-0.212,0 -0.353,0.142 -0.353,0.353l0,10.818c0,0.212 0.141,0.353 0.353,0.353l3.175,0c0.211,0 0.353,-0.141 0.353,-0.353l-0,-5.832c-0,-0.564 0.54,-1.976 1.975,-1.976c0.8,0 1.834,0.4 1.834,2.235l0,5.573c0,0.212 0.141,0.353 0.353,0.353l3.175,0c0.212,0 0.353,-0.141 0.353,-0.353l-0,-6.114c-0,-0.659 0.705,-1.694 1.975,-1.694c0.8,0 1.858,0.4 1.858,2.235l0,5.573c0,0.212 0.141,0.353 0.353,0.353l3.175,0c0.211,0 0.352,-0.141 0.352,-0.353l0,-6.396c0,-3.081 -1.904,-5.033 -4.491,-5.033Z" style="fill:url(#_Linear18);"/><path d="M117.218,204.813l0,10.818c0,0.212 0.141,0.353 0.353,0.353l3.175,0c0.211,0 0.352,-0.141 0.352,-0.353l0,-10.818c0,-0.211 -0.141,-0.353 -0.352,-0.353l-3.175,0c-0.212,0 -0.353,0.142 -0.353,0.353Z" style="fill:url(#_Linear19);"/><path d="M131.611,204.813c-0.329,-0.306 -0.917,-0.611 -1.623,-0.611c-1.458,-0 -2.399,0.846 -2.987,2.022l-0.094,-1.411c-0.023,-0.211 -0.141,-0.353 -0.353,-0.353l-3.057,0c-0.211,0 -0.353,0.142 -0.353,0.353l0,10.818c0,0.212 0.142,0.353 0.353,0.353l3.175,0c0.212,0 0.353,-0.141 0.353,-0.353l-0,-5.456c-0,-1.364 0.799,-2.446 2.281,-2.446c0.423,0 0.729,0.094 0.988,0.189c0.282,0.07 0.494,0.023 0.588,-0.283l0.87,-2.257c0.07,-0.165 0.07,-0.353 -0.141,-0.565Z" style="fill:url(#_Linear20);"/><path d="M143.816,204.46l-3.175,0c-0.211,0 -0.352,0.142 -0.352,0.353l-0,5.95c-0,0.894 -0.588,1.882 -1.952,1.882c-0.729,-0 -1.858,-0.377 -1.858,-2.211l-0,-5.621c-0,-0.211 -0.141,-0.353 -0.353,-0.353l-3.175,0c-0.211,0 -0.353,0.142 -0.353,0.353l0,6.444c0,3.081 1.858,5.033 4.422,5.033c1.34,-0 2.493,-0.776 3.269,-1.905l0.094,1.246c0.023,0.212 0.141,0.353 0.353,0.353l3.08,0c0.212,0 0.353,-0.141 0.353,-0.353l0,-10.818c0,-0.211 -0.141,-0.353 -0.353,-0.353Z" style="fill:url(#_Linear21);"/><path d="M157.809,198.816l-3.175,0c-0.211,0 -0.352,0.141 -0.352,0.353l-0,6.256c-0.776,-0.753 -1.764,-1.247 -2.917,-1.247c-3.174,0 -5.526,2.705 -5.526,6.068c-0,3.363 2.352,6.067 5.526,6.067c1.341,0 2.376,-0.588 3.152,-1.411l0.07,0.729c0.024,0.212 0.141,0.353 0.353,0.353l2.869,0c0.212,0 0.353,-0.141 0.353,-0.353l0,-16.462c0,-0.212 -0.141,-0.353 -0.353,-0.353Zm-5.95,13.946c-1.317,0 -2.281,-1.105 -2.281,-2.54c0,-1.434 0.964,-2.493 2.281,-2.493c1.341,0 2.305,1.153 2.305,2.493c0,1.364 -0.964,2.54 -2.305,2.54Z" style="fill:url(#_Linear22);"/><path d="M162.089,202.579c-1.128,0 -2.046,-0.917 -2.046,-2.046c0,-1.129 0.918,-2.046 2.046,-2.046c1.129,0 2.046,0.917 2.046,2.046c0,1.129 -0.917,2.046 -2.046,2.046Zm0,-3.88l-0.581,1.095c-0.018,0.033 -0.04,0.064 -0.067,0.09c-0.027,0.027 -0.057,0.05 -0.091,0.067l-1.095,0.582l1.095,0.582c0.034,0.017 0.064,0.04 0.091,0.067c0.027,0.026 0.049,0.057 0.067,0.09l0.581,1.095l0.582,-1.095c0.018,-0.033 0.04,-0.064 0.067,-0.09c0.027,-0.027 0.057,-0.05 0.09,-0.067l1.096,-0.582l-1.096,-0.582c-0.033,-0.017 -0.063,-0.04 -0.09,-0.067c-0.027,-0.026 -0.049,-0.057 -0.067,-0.09l-0.582,-1.095Z" style="fill:url(#_Linear23);"/><path d="M136.996,182.582c-1.129,0 -2.046,-0.917 -2.046,-2.046c0,-1.129 0.917,-2.046 2.046,-2.046c1.129,0 2.046,0.917 2.046,2.046c0,1.129 -0.917,2.046 -2.046,2.046Zm0,-3.88l-0.581,1.095c-0.018,0.034 -0.041,0.064 -0.067,0.091c-0.027,0.026 -0.057,0.049 -0.091,0.067l-1.095,0.581l1.095,0.582c0.034,0.018 0.064,0.04 0.091,0.067c0.026,0.026 0.049,0.057 0.067,0.09l0.581,1.096l0.582,-1.096c0.018,-0.033 0.04,-0.064 0.067,-0.09c0.026,-0.027 0.057,-0.049 0.09,-0.067l1.096,-0.582l-1.096,-0.581c-0.033,-0.018 -0.064,-0.041 -0.09,-0.067c-0.027,-0.027 -0.049,-0.057 -0.067,-0.091l-0.582,-1.095Z" style="fill:url(#_Linear24);"/><path d="M160.161,204.813l0,10.818c0,0.212 0.141,0.353 0.353,0.353l3.175,0c0.211,0 0.352,-0.141 0.352,-0.353l0,-10.818c0,-0.211 -0.141,-0.353 -0.352,-0.353l-3.175,0c-0.212,0 -0.353,0.142 -0.353,0.353Z" style="fill:url(#_Linear25);"/><path d="M173.448,204.202c-1.622,-0 -2.775,0.846 -3.48,2.022l-0.094,-1.411c-0.024,-0.211 -0.141,-0.353 -0.353,-0.353l-3.081,0c-0.211,0 -0.353,0.142 -0.353,0.353l0,10.818c0,0.212 0.142,0.353 0.353,0.353l3.175,0c0.212,0 0.353,-0.141 0.353,-0.353l-0,-5.832c-0,-0.564 0.541,-1.976 1.975,-1.976c0.8,0 1.835,0.4 1.835,2.235l-0,5.573c-0,0.212 0.141,0.353 0.352,0.353l3.175,0c0.212,0 0.353,-0.141 0.353,-0.353l0,-6.396c0,-3.081 -1.905,-5.033 -4.21,-5.033Z" style="fill:url(#_Linear26);"/><path d="M150.917,185.389l1.034,1.946c0.031,0.06 0.071,0.114 0.119,0.161c0.047,0.048 0.101,0.088 0.16,0.119l1.946,1.033l-1.946,1.034c-0.059,0.031 -0.113,0.071 -0.16,0.119c-0.048,0.047 -0.088,0.101 -0.119,0.16l-1.034,1.946l-1.033,-1.946c-0.031,-0.059 -0.072,-0.113 -0.119,-0.16c-0.047,-0.048 -0.101,-0.088 -0.161,-0.119l-1.946,-1.034l1.946,-1.033c0.06,-0.031 0.114,-0.071 0.161,-0.119c0.047,-0.047 0.088,-0.101 0.119,-0.161l1.033,-1.946Z" style="fill:url(#_Linear27);"/><path d="M119.146,198.487l0.649,1.222c0.02,0.037 0.045,0.071 0.075,0.101c0.03,0.029 0.064,0.055 0.101,0.074l1.221,0.649l-1.221,0.649c-0.037,0.02 -0.071,0.045 -0.101,0.074c-0.03,0.03 -0.055,0.064 -0.075,0.101l-0.649,1.222l-0.648,-1.222c-0.02,-0.037 -0.045,-0.071 -0.075,-0.101c-0.03,-0.029 -0.064,-0.054 -0.101,-0.074l-1.222,-0.649l1.222,-0.649c0.037,-0.019 0.071,-0.045 0.101,-0.074c0.03,-0.03 0.055,-0.064 0.075,-0.101l0.648,-1.222Z" style="fill:url(#_Linear28);"/><path d="M161.226,183.637l1.589,2.992c0.049,0.091 0.11,0.175 0.183,0.247c0.073,0.073 0.156,0.135 0.247,0.183l2.993,1.589l-2.993,1.59c-0.091,0.048 -0.174,0.11 -0.247,0.182c-0.073,0.073 -0.134,0.157 -0.183,0.248l-1.589,2.992l-1.589,-2.992c-0.048,-0.091 -0.11,-0.175 -0.183,-0.248c-0.073,-0.072 -0.156,-0.134 -0.247,-0.182l-2.993,-1.59l2.993,-1.589c0.091,-0.048 0.174,-0.11 0.247,-0.183c0.073,-0.072 0.135,-0.156 0.183,-0.247l1.589,-2.992Z" style="fill:url(#_Linear29);"/><path d="M171.535,185.389l1.033,1.946c0.032,0.06 0.072,0.114 0.119,0.161c0.047,0.048 0.102,0.088 0.161,0.119l1.946,1.033l-1.946,1.034c-0.059,0.031 -0.114,0.071 -0.161,0.119c-0.047,0.047 -0.087,0.101 -0.119,0.16l-1.033,1.946l-1.034,-1.946c-0.031,-0.059 -0.071,-0.113 -0.118,-0.16c-0.048,-0.048 -0.102,-0.088 -0.161,-0.119l-1.946,-1.034l1.946,-1.033c0.059,-0.031 0.113,-0.071 0.161,-0.119c0.047,-0.047 0.087,-0.101 0.118,-0.161l1.034,-1.946Z" style="fill:url(#_Linear30);"/></g><defs><linearGradient id="_Linear1" x1="0" y1="0" x2="1" y2="0" gradientUnits="userSpaceOnUse" gradientTransform="matrix(-11.8204,-63.6439,440.915,-81.8897,93.3623,153.148)"><stop offset="0" style="stop-color:#004270;stop-opacity:1"/><stop offset="0.5" style="stop-color:#007caa;stop-opacity:1"/><stop offset="1" style="stop-color:#004270;stop-opacity:1"/></linearGradient><linearGradient id="_Linear2" x1="0" y1="0" x2="1" y2="0" gradientUnits="userSpaceOnUse" gradientTransform="matrix(58.8421,0,0,63.862,93.4215,133.025)"><stop offset="0" style="stop-color:#004270;stop-opacity:1"/><stop offset="0.5" style="stop-color:#007caa;stop-opacity:1"/><stop offset="1" style="stop-color:#004270;stop-opacity:1"/></linearGradient><linearGradient id="_Linear3" x1="0" y1="0" x2="1" y2="0" gradientUnits="userSpaceOnUse" gradientTransform="matrix(-58.8421,0,0,-93.2346,165.519,89.504)"><stop offset="0" style="stop-color:#004270;stop-opacity:1"/><stop offset="0.5" style="stop-color:#007caa;stop-opacity:1"/><stop offset="1" style="stop-color:#004270;stop-opacity:1"/></linearGradient><linearGradient id="_Linear4" x1="0" y1="0" x2="1" y2="0" gradientUnits="userSpaceOnUse" gradientTransform="matrix(58.8421,-7.20608e-15,1.49492e-14,122.069,118.816,103.921)"><stop offset="0" style="stop-color:#004270;stop-opacity:1"/><stop offset="0.5" style="stop-color:#007caa;stop-opacity:1"/><stop offset="1" style="stop-color:#004270;stop-opacity:1"/></linearGradient><linearGradient id="_Linear5" x1="0" y1="0" x2="1" y2="0" gradientUnits="userSpaceOnUse" gradientTransform="matrix(265.472,0,0,337.155,287.729,625.586)"><stop offset="0" style="stop-color:#d38d15;stop-opacity:1"/><stop offset="0.5" style="stop-color:#eeaf54;stop-opacity:1"/><stop offset="1" style="stop-color:#d18415;stop-opacity:1"/></linearGradient><linearGradient id="_Linear6" x1="0" y1="0" x2="1" y2="0" gradientUnits="userSpaceOnUse" gradientTransform="matrix(7.55554,0,0,7.55554,168.265,49.3864)"><stop offset="0" style="stop-color:#d38d15;stop-opacity:1"/><stop offset="0.5" style="stop-color:#eeaf54;stop-opacity:1"/><stop offset="1" style="stop-color:#d18415;stop-opacity:1"/></linearGradient><linearGradient id="_Linear7" x1="0" y1="0" x2="1" y2="0" gradientUnits="userSpaceOnUse" gradientTransform="matrix(12.862,0,0,12.862,149.783,49.3864)"><stop offset="0" style="stop-color:#d38d15;stop-opacity:1"/><stop offset="0.5" style="stop-color:#eeaf54;stop-opacity:1"/><stop offset="1" style="stop-color:#d18415;stop-opacity:1"/></linearGradient><linearGradient id="_Linear8" x1="0" y1="0" x2="1" y2="0" gradientUnits="userSpaceOnUse" gradientTransform="matrix(7.55554,0,0,7.55554,136.608,49.3864)"><stop offset="0" style="stop-color:#d38d15;stop-opacity:1"/><stop offset="0.5" style="stop-color:#eeaf54;stop-opacity:1"/><stop offset="1" style="stop-color:#d18415;stop-opacity:1"/></linearGradient><linearGradient id="_Linear9" x1="0" y1="0" x2="1" y2="0" gradientUnits="userSpaceOnUse" gradientTransform="matrix(11.3716,0,0,11.3716,81.9907,59.6421)"><stop offset="0" style="stop-color:#d38d15;stop-opacity:1"/><stop offset="0.5" style="stop-color:#eeaf54;stop-opacity:1"/><stop offset="1" style="stop-color:#d18415;stop-opacity:1"/></linearGradient><linearGradient id="_Linear10" x1="0" y1="0" x2="1" y2="0" gradientUnits="userSpaceOnUse" gradientTransform="matrix(7.76004,0,0,7.76004,83.7965,72.5175)"><stop offset="0" style="stop-color:#d38d15;stop-opacity:1"/><stop offset="0.5" style="stop-color:#eeaf54;stop-opacity:1"/><stop offset="1" style="stop-color:#d18415;stop-opacity:1"/></linearGradient><linearGradient id="_Linear11" x1="0" y1="0" x2="1" y2="0" gradientUnits="userSpaceOnUse" gradientTransform="matrix(7.76004,0,0,7.76004,83.7965,46.7667)"><stop offset="0" style="stop-color:#d38d15;stop-opacity:1"/><stop offset="0.5" style="stop-color:#eeaf54;stop-opacity:1"/><stop offset="1" style="stop-color:#d18415;stop-opacity:1"/></linearGradient><linearGradient id="_Linear12" x1="0" y1="0" x2="1" y2="0" gradientUnits="userSpaceOnUse" gradientTransform="matrix(96.1161,0,0,198.124,62.0224,97.2662)"><stop offset="0" style="stop-color:#004270;stop-opacity:1"/><stop offset="0.5" style="stop-color:#007caa;stop-opacity:1"/><stop offset="1" style="stop-color:#004270;stop-opacity:1"/></linearGradient><linearGradient id="_Linear13" x1="0" y1="0" x2="1" y2="0" gradientUnits="userSpaceOnUse" gradientTransform="matrix(96.1161,0,0,198.124,62.0224,97.2662)"><stop offset="0" style="stop-color:#004270;stop-opacity:1"/><stop offset="0.5" style="stop-color:#007caa;stop-opacity:1"/><stop offset="1" style="stop-color:#004270;stop-opacity:1"/></linearGradient><linearGradient id="_Linear14" x1="0" y1="0" x2="1" y2="0" gradientUnits="userSpaceOnUse" gradientTransform="matrix(96.1161,0,0,198.124,62.0224,97.2662)"><stop offset="0" style="stop-color:#004270;stop-opacity:1"/><stop offset="0.5" style="stop-color:#007caa;stop-opacity:1"/><stop offset="1" style="stop-color:#004270;stop-opacity:1"/></linearGradient><linearGradient id="_Linear15" x1="0" y1="0" x2="1" y2="0" gradientUnits="userSpaceOnUse" gradientTransform="matrix(96.1161,0,0,198.124,62.0224,97.2662)"><stop offset="0" style="stop-color:#004270;stop-opacity:1"/><stop offset="0.5" style="stop-color:#007caa;stop-opacity:1"/><stop offset="1" style="stop-color:#004270;stop-opacity:1"/></linearGradient><linearGradient id="_Linear16" x1="0" y1="0" x2="1" y2="0" gradientUnits="userSpaceOnUse" gradientTransform="matrix(96.1161,0,0,198.124,62.0224,97.2662)"><stop offset="0" style="stop-color:#004270;stop-opacity:1"/><stop offset="0.5" style="stop-color:#007caa;stop-opacity:1"/><stop offset="1" style="stop-color:#004270;stop-opacity:1"/></linearGradient><linearGradient id="_Linear17" x1="0" y1="0" x2="1" y2="0" gradientUnits="userSpaceOnUse" gradientTransform="matrix(96.1161,0,0,198.124,81.542,117.251)"><stop offset="0" style="stop-color:#004270;stop-opacity:1"/><stop offset="0.5" style="stop-color:#007caa;stop-opacity:1"/><stop offset="1" style="stop-color:#004270;stop-opacity:1"/></linearGradient><linearGradient id="_Linear18" x1="0" y1="0" x2="1" y2="0" gradientUnits="userSpaceOnUse" gradientTransform="matrix(96.1161,0,0,198.124,81.542,117.251)"><stop offset="0" style="stop-color:#004270;stop-opacity:1"/><stop offset="0.5" style="stop-color:#007caa;stop-opacity:1"/><stop offset="1" style="stop-color:#004270;stop-opacity:1"/></linearGradient><linearGradient id="_Linear19" x1="0" y1="0" x2="1" y2="0" gradientUnits="userSpaceOnUse" gradientTransform="matrix(96.1161,0,0,198.124,81.542,117.251)"><stop offset="0" style="stop-color:#004270;stop-opacity:1"/><stop offset="0.5" style="stop-color:#007caa;stop-opacity:1"/><stop offset="1" style="stop-color:#004270;stop-opacity:1"/></linearGradient><linearGradient id="_Linear20" x1="0" y1="0" x2="1" y2="0" gradientUnits="userSpaceOnUse" gradientTransform="matrix(96.1161,0,0,198.124,81.542,117.251)"><stop offset="0" style="stop-color:#004270;stop-opacity:1"/><stop offset="0.5" style="stop-color:#007caa;stop-opacity:1"/><stop offset="1" style="stop-color:#004270;stop-opacity:1"/></linearGradient><linearGradient id="_Linear21" x1="0" y1="0" x2="1" y2="0" gradientUnits="userSpaceOnUse" gradientTransform="matrix(96.1161,0,0,198.124,81.542,117.251)"><stop offset="0" style="stop-color:#004270;stop-opacity:1"/><stop offset="0.5" style="stop-color:#007caa;stop-opacity:1"/><stop offset="1" style="stop-color:#004270;stop-opacity:1"/></linearGradient><linearGradient id="_Linear22" x1="0" y1="0" x2="1" y2="0" gradientUnits="userSpaceOnUse" gradientTransform="matrix(96.1161,0,0,198.124,81.542,117.251)"><stop offset="0" style="stop-color:#004270;stop-opacity:1"/><stop offset="0.5" style="stop-color:#007caa;stop-opacity:1"/><stop offset="1" style="stop-color:#004270;stop-opacity:1"/></linearGradient><linearGradient id="_Linear23" x1="0" y1="0" x2="1" y2="0" gradientUnits="userSpaceOnUse" gradientTransform="matrix(96.1161,0,0,198.124,81.542,117.251)"><stop offset="0" style="stop-color:#d38d15;stop-opacity:1"/><stop offset="0.5" style="stop-color:#eeaf54;stop-opacity:1"/><stop offset="1" style="stop-color:#d18415;stop-opacity:1"/></linearGradient><linearGradient id="_Linear24" x1="0" y1="0" x2="1" y2="0" gradientUnits="userSpaceOnUse" gradientTransform="matrix(96.1161,0,0,198.124,56.4488,97.2544)"><stop offset="0" style="stop-color:#d38d15;stop-opacity:1"/><stop offset="0.5" style="stop-color:#eeaf54;stop-opacity:1"/><stop offset="1" style="stop-color:#d18415;stop-opacity:1"/></linearGradient><linearGradient id="_Linear25" x1="0" y1="0" x2="1" y2="0" gradientUnits="userSpaceOnUse" gradientTransform="matrix(96.1161,0,0,198.124,81.542,117.251)"><stop offset="0" style="stop-color:#004270;stop-opacity:1"/><stop offset="0.5" style="stop-color:#007caa;stop-opacity:1"/><stop offset="1" style="stop-color:#004270;stop-opacity:1"/></linearGradient><linearGradient id="_Linear26" x1="0" y1="0" x2="1" y2="0" gradientUnits="userSpaceOnUse" gradientTransform="matrix(96.1161,0,0,198.124,81.542,117.251)"><stop offset="0" style="stop-color:#004270;stop-opacity:1"/><stop offset="0.5" style="stop-color:#007caa;stop-opacity:1"/><stop offset="1" style="stop-color:#004270;stop-opacity:1"/></linearGradient><linearGradient id="_Linear27" x1="0" y1="0" x2="1" y2="0" gradientUnits="userSpaceOnUse" gradientTransform="matrix(100.064,0,0,206.262,83.0765,288.52)"><stop offset="0" style="stop-color:#d38d15;stop-opacity:1"/><stop offset="0.5" style="stop-color:#eeaf54;stop-opacity:1"/><stop offset="1" style="stop-color:#d18415;stop-opacity:1"/></linearGradient><linearGradient id="_Linear28" x1="0" y1="0" x2="1" y2="0" gradientUnits="userSpaceOnUse" gradientTransform="matrix(62.8201,0,0,129.491,76.556,263.233)"><stop offset="0" style="stop-color:#d38d15;stop-opacity:1"/><stop offset="0.5" style="stop-color:#eeaf54;stop-opacity:1"/><stop offset="1" style="stop-color:#d18415;stop-opacity:1"/></linearGradient><linearGradient id="_Linear29" x1="0" y1="0" x2="1" y2="0" gradientUnits="userSpaceOnUse" gradientTransform="matrix(153.883,0,0,317.2,56.8969,342.236)"><stop offset="0" style="stop-color:#d38d15;stop-opacity:1"/><stop offset="0.5" style="stop-color:#eeaf54;stop-opacity:1"/><stop offset="1" style="stop-color:#d18415;stop-opacity:1"/></linearGradient><linearGradient id="_Linear30" x1="0" y1="0" x2="1" y2="0" gradientUnits="userSpaceOnUse" gradientTransform="matrix(100.064,0,0,206.262,103.694,288.52)"><stop offset="0" style="stop-color:#d38d15;stop-opacity:1"/><stop offset="0.5" style="stop-color:#eeaf54;stop-opacity:1"/><stop offset="1" style="stop-color:#d18415;stop-opacity:1"/></linearGradient></defs></svg>