<?xml version="1.0" encoding="UTF-8" standalone="no"?><!DOCTYPE svg PUBLIC "-//W3C//DTD SVG 1.1//EN" "http://www.w3.org/Graphics/SVG/1.1/DTD/svg11.dtd"><svg width="100%" height="100%" viewBox="0 0 196 196" version="1.1" xmlns="http://www.w3.org/2000/svg" xmlns:xlink="http://www.w3.org/1999/xlink" xml:space="preserve" xmlns:serif="http://www.serif.com/" style="fill-rule:evenodd;clip-rule:evenodd;stroke-linejoin:round;stroke-miterlimit:2;"><path d="M195.267,97.632c0,-25.894 -10.286,-50.727 -28.595,-69.036c-18.31,-18.31 -43.143,-28.596 -69.037,-28.596l-0.003,0c-25.894,-0 -50.727,10.286 -69.036,28.596c-18.31,18.309 -28.596,43.142 -28.596,69.036l0,0.13c-0,25.894 10.286,50.727 28.596,69.036c18.309,18.31 43.142,28.596 69.036,28.596l0.003,-0c25.894,-0 50.727,-10.286 69.037,-28.596c18.309,-18.309 28.595,-43.142 28.595,-69.036l0,-0.13Z" style="fill:url(#_Linear1);"/><g transform="matrix(0.163325,0,0,0.163325,-62.8646,79.6838)"><text x="699.208px" y="495.003px" style="font-family:'GreycliffCF-Heavy', 'Greycliff CF';font-weight:900;font-size:53.402px;fill:#b5b5b5;">H<tspan x="749.086px 790.472px 829.883px 889.265px 917.889px 968.407px 1027.79px 1056.41px 1101.96px 1150.13px 1200.49px 1229.12px " y="495.003px 495.003px 495.003px 495.003px 495.003px 495.003px 495.003px 495.003px 495.003px 495.003px 495.003px 495.003px ">ELMIAMIRUDIN</tspan></text><text x="748.184px" y="537.725px" style="font-family:'GreycliffCF-Bold', 'Greycliff CF';font-weight:700;font-size:41.619px;fill:#b5b5b5;">D<tspan x="792.882px 830.922px 870.585px 897.929px 945.957px 990.989px 1029.36px 1068.9px 1112.23px 1156.92px 1184.27px " y="537.725px 537.725px 537.725px 537.725px 537.725px 537.725px 537.725px 537.725px 537.725px 537.725px 537.725px ">ESIGNSTUDIO</tspan></text></g><path d="M104.815,137.372c-2.333,0.42 -4.732,0.639 -7.181,0.639c-4.085,-0 -8.029,-0.609 -11.745,-1.741c0.011,-6.103 0.019,-12.206 0.015,-18.308c2.965,-0.216 6.559,0.136 9.596,0.14c1.609,0 3.177,0.023 4.786,-0.038c1.545,-0.06 3.045,-0.25 4.552,-0.318l-0.023,19.626Zm-1.83,-79.636c19.723,2.62 34.962,19.525 34.962,39.961c0,17.955 -11.764,33.185 -27.998,38.395l0.008,-19.308c3.39,-1.166 8.093,-2.567 10.865,-5.127c2.669,-2.461 5.002,-4.961 6.782,-9.251c1.707,-4.109 2.665,-8.471 2.234,-13.53c-0.394,-4.635 -1.943,-9.137 -4.234,-11.932c-2.253,-2.749 -6.131,-5.415 -11.36,-3.264c-4.052,1.666 -5.703,4.377 -7.384,8.789c-2.496,6.547 -1.988,14.639 -2.011,22.039c-0.004,2.552 0.129,5.597 -0.049,8.092c-3.548,0.417 -15.302,0.462 -18.888,0.186c-0,-2.273 0.147,-17.662 -0.076,-18.502l-4.995,-0.031l-0.015,18.877c-5.309,0.587 -9.353,2.143 -12.36,6.286c-0.861,1.186 -1.488,2.498 -1.943,3.909c-5.749,-6.969 -9.203,-15.898 -9.203,-25.628c0,-3.242 0.384,-6.395 1.108,-9.416c0.363,-0.008 0.562,-0.007 0.562,-0.007c0,0 6.559,0.136 9.596,0.14c1.609,0 3.177,0.023 4.786,-0.038c1.545,-0.06 3.045,-0.25 4.552,-0.318l5.119,-0.962c3.39,-1.166 8.093,-2.567 10.865,-5.127c2.669,-2.461 5.002,-4.96 6.782,-9.251c1.208,-2.906 2.111,-7.747 2.295,-14.982Zm-32.269,69.961c0.525,-4.256 2.5,-8.709 10.125,-9.451c-0.004,5.365 -0.014,10.73 -0.024,16.095c-3.703,-1.704 -7.104,-3.952 -10.101,-6.644Zm39.287,-16.263c-0.114,-3.973 0.019,-8.142 0.03,-12.137c0.019,-5.544 -0.254,-15.855 4.427,-19.785c0.92,-0.777 2.613,-1.932 4.328,-1.5c1.291,0.326 2.704,1.89 3.287,2.73c4.351,6.26 3.306,17.362 -1.246,23.444c-2.382,3.184 -6.611,6.399 -10.826,7.248Zm-12.124,-54.05c-0.235,8.894 -1.771,14.185 -3.964,17.114c-2.382,3.185 -6.746,5.893 -10.826,7.248c-2.077,0.689 -3.004,0.908 -5.203,1.166c-2.987,0.351 -14.327,0.243 -17.842,0.199c5.849,-15.048 20.482,-25.728 37.59,-25.728l0.245,0.001Z" style="fill:#b5b5b5;"/><defs><linearGradient id="_Linear1" x1="0" y1="0" x2="1" y2="0" gradientUnits="userSpaceOnUse" gradientTransform="matrix(195.267,195.394,-195.394,195.267,2.84217e-14,-3.0127e-12)"><stop offset="0" style="stop-color:#fff;stop-opacity:1"/><stop offset="1" style="stop-color:#d8d8d8;stop-opacity:1"/></linearGradient></defs></svg>