<?xml version="1.0" encoding="UTF-8" standalone="no"?>
<!DOCTYPE svg PUBLIC "-//W3C//DTD SVG 1.1//EN" "http://www.w3.org/Graphics/SVG/1.1/DTD/svg11.dtd">
<svg width="100%" height="100%" viewBox="0 0 349 57" version="1.1" xmlns="http://www.w3.org/2000/svg" xmlns:xlink="http://www.w3.org/1999/xlink" xml:space="preserve" xmlns:serif="http://www.serif.com/" style="fill-rule:evenodd;clip-rule:evenodd;stroke-linejoin:round;stroke-miterlimit:2;">
    <g transform="matrix(0.48,0,0,0.48,-766.271,-1130.5)">
        <g transform="matrix(1,0,0,1.39534,0,0)">
            <g transform="matrix(1,0,0,0.71667,-1110.34,328.027)">
                <path d="M2980.61,1929.65C2975.42,1927.01 2969.47,1925.62 2963.08,1925.62C2955.87,1925.62 2949.5,1927.38 2944.09,1930.4C2938.84,1927.27 2932.84,1925.62 2926.5,1925.62C2921.65,1925.62 2917.28,1926.48 2913.38,1928.02C2911.54,1927.3 2909.47,1926.9 2907.15,1926.9L2895.58,1926.9L2895.58,1916.01C2895.58,1910.99 2893.58,1906.94 2890.66,1904.02C2887.73,1901.09 2883.68,1899.1 2878.67,1899.1L2863.05,1899.1C2858.03,1899.1 2853.98,1901.09 2851.06,1904.02C2848.14,1906.95 2846.14,1910.99 2846.14,1916.01L2846.14,1930.4C2840.32,1927.35 2833.53,1925.62 2825.99,1925.62C2817.46,1925.62 2809.6,1927.92 2802.95,1931.96L2802.95,1919.49C2802.95,1914.48 2800.96,1910.43 2798.04,1907.51C2795.11,1904.58 2791.06,1902.58 2786.05,1902.58L2769.73,1902.58C2764.72,1902.58 2760.67,1904.58 2757.74,1907.51C2756.62,1908.63 2755.64,1909.92 2754.85,1911.36C2754.06,1909.92 2753.08,1908.63 2751.96,1907.51C2749.03,1904.58 2744.98,1902.58 2739.97,1902.58C2739.97,1902.58 2723.65,1902.58 2723.65,1902.58C2718.64,1902.58 2714.59,1904.58 2711.66,1907.51C2708.74,1910.43 2706.74,1914.48 2706.74,1919.49L2706.74,1997.05C2706.74,2002.06 2708.74,2006.11 2711.66,2009.04C2714.59,2011.96 2718.64,2013.96 2723.65,2013.96C2723.65,2013.96 2739.97,2013.96 2739.97,2013.96C2744.98,2013.96 2749.03,2011.96 2751.96,2009.04C2753.08,2007.91 2754.06,2006.63 2754.85,2005.18C2755.64,2006.63 2756.62,2007.91 2757.74,2009.04C2760.67,2011.96 2764.72,2013.96 2769.73,2013.96C2769.73,2013.96 2786.05,2013.96 2786.05,2013.96C2791.06,2013.96 2795.11,2011.96 2798.04,2009.04C2798.67,2008.4 2799.26,2007.72 2799.78,2006.98C2807.21,2012.34 2816.64,2015.47 2827.5,2015.47C2836.01,2015.47 2844.03,2013.04 2850.87,2008.84L2851.06,2009.04C2853.98,2011.96 2858.03,2013.96 2863.05,2013.96C2863.05,2013.96 2878.67,2013.96 2878.67,2013.96C2881.13,2013.96 2883.36,2013.48 2885.33,2012.64C2887.31,2013.48 2889.53,2013.96 2891.99,2013.96C2891.99,2013.96 2907.61,2013.96 2907.61,2013.96C2912.15,2013.96 2915.9,2012.33 2918.73,2009.85C2921.57,2012.33 2925.32,2013.96 2929.86,2013.96C2929.86,2013.96 2945.47,2013.96 2945.47,2013.96C2950.04,2013.96 2953.81,2012.31 2956.65,2009.79C2959.49,2012.31 2963.26,2013.96 2967.83,2013.96C2967.83,2013.96 2983.45,2013.96 2983.45,2013.96C2985.98,2013.96 2988.27,2013.45 2990.28,2012.57C2992.3,2013.45 2994.59,2013.96 2997.12,2013.96C2997.12,2013.96 3012.74,2013.96 3012.74,2013.96C3017.76,2013.96 3021.8,2011.97 3024.73,2009.04C3027.65,2006.11 3029.65,2002.07 3029.65,1997.05L3029.65,1992.49L3032.56,2001.89L3032.53,2001.79C3034.68,2008.76 3042.28,2013.96 3049.37,2013.96C3049.37,2013.96 3065,2013.96 3065,2013.96C3072.57,2013.96 3078.33,2010.3 3081.17,2002.73C3081.24,2002.54 3081.3,2002.36 3081.37,2002.18L3083.46,1995.86C3083.46,1995.86 3085.41,2001.76 3085.41,2001.76C3087.65,2009.72 3093.63,2013.96 3101.8,2013.96C3101.8,2013.96 3117.54,2013.96 3117.54,2013.96C3124.62,2013.96 3131.29,2009.81 3133.95,2002.73C3134.04,2002.47 3134.13,2002.21 3134.21,2001.95L3134.33,2001.59C3135.12,2004.56 3136.67,2007.06 3138.66,2009.04C3141.58,2011.96 3145.63,2013.96 3150.64,2013.96C3150.64,2013.96 3166.26,2013.96 3166.26,2013.96C3171.28,2013.96 3175.33,2011.97 3178.25,2009.04C3181.18,2006.11 3183.17,2002.07 3183.17,1997.05L3183.17,1974.29C3185.48,1974.55 3187.61,1974.37 3189.54,1973.84L3189.54,1997.05C3189.54,2002.06 3191.54,2006.11 3194.46,2009.04C3197.39,2011.96 3201.44,2013.96 3206.45,2013.96C3206.45,2013.96 3222.07,2013.96 3222.07,2013.96C3227.08,2013.96 3231.14,2011.96 3234.06,2009.04C3236.98,2006.11 3238.98,2002.06 3238.98,1997.05L3238.98,1971.13C3240.86,1970.28 3242.5,1969.1 3243.89,1967.71C3246.82,1964.79 3248.82,1960.74 3248.82,1955.72L3248.82,1943.81C3248.82,1938.79 3246.82,1934.74 3243.89,1931.81C3242.5,1930.43 3240.86,1929.25 3238.98,1928.4L3238.98,1926.44C3238.98,1921.43 3236.98,1917.38 3234.06,1914.46C3231.14,1911.53 3227.08,1909.53 3222.07,1909.53L3206.45,1909.53C3201.44,1909.53 3197.39,1911.53 3194.46,1914.46C3191.54,1917.38 3189.54,1921.43 3189.54,1926.44L3189.54,1926.55C3187.39,1925.97 3185.05,1925.62 3182.59,1925.62C3178.29,1925.62 3174.45,1926.35 3171.01,1927.7C3169.41,1927.18 3167.64,1926.9 3165.68,1926.9L3157.81,1926.9L3158.63,1924.28C3158.65,1924.22 3158.67,1924.16 3158.69,1924.1C3160.44,1918.25 3159.03,1913.4 3156.7,1909.89C3154.12,1906.03 3149.85,1902.58 3142.77,1902.58L3125.76,1902.58C3117.65,1902.58 3111.22,1906.48 3109.07,1915.44C3109.08,1915.42 3108.49,1917.55 3108.49,1917.55C3108.49,1917.55 3107.63,1914.72 3107.63,1914.72C3107.51,1914.31 3107.37,1913.91 3107.21,1913.51C3105.5,1909.25 3103.28,1907.07 3100.73,1905.37C3100.2,1905.02 3099.66,1904.7 3099.1,1904.42C3097.35,1903.55 3094.76,1902.58 3091.27,1902.58C3091.27,1902.58 3075.64,1902.58 3075.64,1902.58C3072.65,1902.58 3070.65,1903.09 3068.66,1904.01C3063.52,1906.18 3060.35,1909.45 3059.05,1915.45C3059.05,1915.45 3058.53,1917.16 3058.53,1917.16C3058.53,1917.16 3058.02,1915.25 3058.02,1915.25C3057.94,1914.95 3057.85,1914.65 3057.75,1914.35C3056.27,1909.91 3053.71,1907.2 3050.88,1905.35C3048.22,1903.62 3045.08,1902.58 3041.39,1902.58C3041.39,1902.58 3024.37,1902.58 3024.37,1902.58C3023.01,1902.58 3021.74,1902.72 3020.56,1902.97C3016.25,1899.54 3010.8,1897.49 3004.87,1897.49C2990.95,1897.49 2979.63,1908.8 2979.63,1922.73C2979.63,1925.13 2979.97,1927.45 2980.61,1929.65ZM3352.86,1918.99C3342.47,1908.27 3327.92,1901.66 3311.92,1901.66C3280.66,1901.66 3254.96,1926.89 3254.96,1958.62C3254.96,1990.21 3280.65,2015.47 3311.92,2015.47C3327.01,2015.47 3340.81,2009.58 3351.04,1999.94C3359.1,2007.76 3373.02,2015.47 3388.57,2015.47C3409.89,2015.47 3432.68,2001.84 3432.68,1975.3C3432.68,1961.5 3427.48,1952.59 3420.12,1946.42L3425.76,1939.4C3426.13,1938.93 3426.47,1938.45 3426.78,1937.95C3429.14,1934.18 3429.69,1930.7 3429.45,1927.53C3429.2,1924.04 3428.03,1920.36 3424.41,1916.75C3424.26,1916.59 3424.1,1916.44 3423.94,1916.29C3414.25,1907.41 3403.02,1901.66 3387.99,1901.66C3374.01,1901.66 3360.51,1907.81 3352.86,1918.99ZM3362.28,1986.73L3361.71,1986.26L3361.71,1986.27L3362.19,1986.67L3362.28,1986.73ZM3037.39,1914.95L3037.46,1915.16L3037.43,1915.08L3037.39,1914.95Z" style="fill:url(#_Linear1);"/>
            </g>
        </g>
        <g transform="matrix(1,0,0,1.39534,0,0)">
            <g transform="matrix(2.31558,0,0,1.65951,-688.681,-1796.61)">
                <path d="M1021.07,2108.48L1014.03,2108.48C1013.58,2108.48 1013.28,2108.78 1013.28,2109.23L1013.28,2122.63L1008.95,2122.63L1001.53,2126.59L1004.73,2122.63L1001.92,2122.63L1001.92,2109.23C1001.92,2108.78 1001.62,2108.48 1001.17,2108.48L994.129,2108.48C993.68,2108.48 993.38,2108.78 993.38,2109.23L993.38,2142.72C993.38,2143.17 993.68,2143.47 994.129,2143.47L1001.17,2143.47C1001.62,2143.47 1001.92,2143.17 1001.92,2142.72L1001.92,2130.12L1005.84,2130.12L1013.24,2126.2L1010.67,2130.12L1013.28,2130.12L1013.28,2142.72C1013.28,2143.17 1013.58,2143.47 1014.03,2143.47L1021.07,2143.47C1021.52,2143.47 1021.82,2143.17 1021.82,2142.72L1021.82,2109.23C1021.82,2108.78 1021.52,2108.48 1021.07,2108.48Z" style="fill:white;fill-rule:nonzero;"/>
            </g>
        </g>
        <g transform="matrix(1,0,0,1.39534,0,0)">
            <g transform="matrix(2.31558,0,0,1.65951,-688.681,-1796.61)">
                <path d="M1050.07,2130.93C1050.07,2124.07 1045.47,2118.43 1038.33,2118.43C1031.23,2118.43 1025.83,2124.07 1025.83,2131.28C1025.83,2138.48 1031.13,2144.12 1038.98,2144.12C1042.47,2144.12 1061.73,2144.61 1061.66,2143.22C1061.62,2142.66 1053.94,2136.5 1050.18,2138.48C1048.88,2139.16 1048.14,2136.39 1046.57,2135.98C1045.77,2135.77 1044.62,2136.03 1044.12,2136.33C1042.38,2137.38 1041.08,2137.58 1039.73,2137.58C1036.78,2137.58 1034.73,2136.48 1034.03,2134.17L1048.17,2134.17C1049.77,2134.17 1050.07,2133.07 1050.07,2130.93ZM1038.43,2125.32C1040.48,2125.32 1042.23,2126.43 1042.72,2129.03L1033.88,2129.03C1034.43,2126.43 1036.33,2125.32 1038.43,2125.32Z" style="fill:white;fill-rule:nonzero;"/>
            </g>
        </g>
        <g transform="matrix(1,0,0,1.39534,0,0)">
            <g transform="matrix(2.31558,0,0,1.65951,-688.681,-1796.61)">
                <path d="M1053.58,2107.72L1053.58,2116.94L1057.87,2117.13L1053.58,2119.87L1053.58,2142.72C1053.58,2143.17 1053.88,2143.47 1054.33,2143.47L1061.07,2143.47C1061.52,2143.47 1061.82,2143.17 1061.82,2142.72L1061.82,2107.72C1061.82,2107.27 1061.52,2106.97 1061.07,2106.97L1054.33,2106.97C1053.88,2106.97 1053.58,2107.27 1053.58,2107.72Z" style="fill:white;fill-rule:nonzero;"/>
            </g>
        </g>
        <g transform="matrix(1,0,0,1.39534,0,0)">
            <g transform="matrix(2.31558,0,0,1.65951,-688.681,-1796.61)">
                <path d="M1097.53,2118.43C1093.78,2118.43 1090.87,2120.23 1089.12,2122.83C1087.48,2120.03 1084.78,2118.43 1081.73,2118.43C1078.28,2118.43 1075.83,2120.23 1074.32,2122.73L1074.12,2119.73C1074.07,2119.28 1073.82,2118.98 1073.37,2118.98L1066.83,2118.98C1066.38,2118.98 1066.08,2119.28 1066.08,2119.73L1066.08,2129.67C1066.08,2129.67 1069.92,2130.68 1069.92,2131.32C1069.92,2131.95 1066.08,2133.49 1066.08,2133.49L1066.08,2142.72C1066.08,2143.17 1066.38,2143.47 1066.83,2143.47L1073.57,2143.47C1074.02,2143.47 1074.32,2143.17 1074.32,2142.72L1074.32,2130.32C1074.32,2129.12 1075.47,2126.12 1078.53,2126.12C1080.23,2126.12 1082.43,2126.97 1082.43,2130.87L1082.43,2142.72C1082.43,2143.17 1082.73,2143.47 1083.18,2143.47L1089.92,2143.47C1090.37,2143.47 1090.67,2143.17 1090.67,2142.72L1090.67,2129.72C1090.67,2128.32 1092.17,2126.12 1094.88,2126.12C1096.58,2126.12 1098.83,2126.97 1098.83,2130.87L1098.83,2142.72C1098.83,2143.17 1099.13,2143.47 1099.58,2143.47L1106.32,2143.47C1106.77,2143.47 1107.07,2143.17 1107.07,2142.72L1107.07,2129.12C1107.07,2122.58 1103.03,2118.43 1097.53,2118.43Z" style="fill:white;fill-rule:nonzero;"/>
            </g>
        </g>
        <g transform="matrix(1,0,0,1.39534,0,0)">
            <g transform="matrix(2.31558,0,0,1.65951,-688.681,-1796.61)">
                <path d="M1115.58,2114.97C1117.98,2114.97 1119.92,2113.03 1119.92,2110.63C1119.92,2108.23 1117.98,2106.28 1115.58,2106.28C1113.18,2106.28 1111.23,2108.23 1111.23,2110.63C1111.23,2113.03 1113.18,2114.97 1115.58,2114.97ZM1111.48,2119.73L1111.48,2142.72C1111.48,2143.17 1111.78,2143.47 1112.23,2143.47L1118.97,2143.47C1119.42,2143.47 1119.72,2143.17 1119.72,2142.72L1119.72,2137.92L1116.41,2136.56L1119.72,2134.89L1119.72,2119.73C1119.72,2119.28 1119.42,2118.98 1118.97,2118.98L1112.23,2118.98C1111.78,2118.98 1111.48,2119.28 1111.48,2119.73Z" style="fill:white;fill-rule:nonzero;"/>
            </g>
        </g>
        <g transform="matrix(1,0,0,1.39534,0,0)">
            <g transform="matrix(2.31558,0,0,1.65951,-688.681,-1796.61)">
                <path d="M1175.13,2108.48L1167.78,2108.48C1167.38,2108.48 1167.03,2108.63 1166.93,2109.08L1164.78,2116.97L1170.5,2118.45L1164,2119.85L1160.68,2132.03L1153.69,2109.08C1153.59,2108.83 1153.49,2108.68 1153.34,2108.58C1153.24,2108.53 1153.09,2108.48 1152.89,2108.48L1146.14,2108.48C1145.99,2108.48 1145.89,2108.48 1145.79,2108.53C1145.54,2108.63 1145.39,2108.78 1145.34,2109.08L1140.8,2123.88L1145.98,2124.08L1140.15,2125.98L1138.29,2132.03L1132.19,2109.08C1132.05,2108.63 1131.75,2108.48 1131.35,2108.48L1115.58,2106.28C1115.03,2106.28 1115.38,2114.47 1115.58,2114.97L1125.18,2115.1L1133.79,2142.87C1133.89,2143.27 1134.39,2143.47 1134.79,2143.47L1141.54,2143.47C1141.94,2143.47 1142.24,2143.27 1142.39,2142.87L1149.54,2121.33L1156.63,2142.87C1156.73,2143.27 1157.03,2143.47 1157.43,2143.47L1164.23,2143.47C1164.63,2143.47 1165.03,2143.27 1165.18,2142.87L1175.73,2109.33C1175.88,2108.83 1175.68,2108.48 1175.13,2108.48Z" style="fill:white;fill-rule:nonzero;"/>
            </g>
        </g>
        <g transform="matrix(1,0,0,1.39534,0,0)">
            <g transform="matrix(2.31558,0,0,1.65951,-688.681,-1796.61)">
                <path d="M1199.21,2118.98C1198.25,2118.96 1193.07,2119.07 1191.57,2119.07C1188.47,2119.07 1187.22,2120.23 1185.97,2122.73L1185.77,2119.73C1185.72,2119.28 1185.47,2118.98 1185.02,2118.98L1178.53,2118.98C1178.08,2118.98 1177.78,2119.28 1177.78,2119.73L1177.78,2142.72C1177.78,2143.17 1178.08,2143.47 1178.53,2143.47L1185.27,2143.47C1185.72,2143.47 1186.02,2143.17 1186.02,2142.72L1186.02,2131.13C1186.02,2128.22 1187.72,2125.92 1190.87,2125.92C1191.77,2125.92 1199.04,2125.56 1199.64,2125.62C1199.51,2124.8 1200.69,2124.91 1200.89,2124.26L1200.19,2120.9C1200.34,2120.55 1201.21,2119.03 1199.21,2118.98Z" style="fill:white;fill-rule:nonzero;"/>
            </g>
        </g>
        <g transform="matrix(1,0,0,1.39534,0,0)">
            <g transform="matrix(2.31558,0,0,1.65951,-688.681,-1796.61)">
                <path d="M1213.62,2118.98L1210.12,2118.98L1210.12,2112.23C1210.12,2111.78 1209.82,2111.48 1209.37,2111.48L1202.63,2111.48C1202.18,2111.48 1201.88,2111.78 1201.88,2112.23L1201.88,2118.98L1198.38,2118.98C1197.93,2118.98 1197.63,2119.28 1197.63,2119.73L1197.63,2124.88C1197.63,2125.32 1197.93,2125.62 1198.38,2125.62L1201.88,2125.62L1201.88,2142.72C1201.88,2143.17 1202.18,2143.47 1202.63,2143.47L1209.37,2143.47C1209.82,2143.47 1210.12,2143.17 1210.12,2142.72L1210.12,2125.62L1213.62,2125.62C1214.07,2125.62 1214.37,2125.32 1214.37,2124.88L1214.37,2119.73C1214.37,2119.28 1214.07,2118.98 1213.62,2118.98Z" style="fill:white;fill-rule:nonzero;"/>
            </g>
        </g>
        <g transform="matrix(1,0,0,1.39534,0,0)">
            <g transform="matrix(1,0,0,0.71667,0,-70.7384)">
                <path d="M2241.85,2503.82C2236.94,2486.08 2220.67,2473.24 2201.58,2473.24C2178.64,2473.24 2159.79,2491.76 2159.79,2515.03C2159.79,2538.2 2178.64,2556.71 2201.58,2556.71C2218.62,2556.71 2233.41,2546.48 2239.88,2531.72C2244.79,2537.85 2249.48,2543.55 2249.75,2543.87C2255.07,2550 2265.94,2556.71 2278.22,2556.71C2291.89,2556.71 2307.16,2548.72 2307.16,2531.71C2307.16,2503.22 2270.57,2509.01 2270.57,2497.55C2270.57,2494.77 2272.89,2491.87 2278.34,2491.87C2283.32,2491.87 2286.8,2493.49 2292.7,2497.31C2293.62,2497.89 2294.43,2497.78 2295.13,2496.85L2303.57,2486.32C2304.15,2485.39 2304.15,2484.7 2303.34,2483.89C2296.4,2477.53 2288.42,2473.24 2277.64,2473.24C2264.33,2473.24 2251.25,2481.69 2251.25,2497.08C2251.25,2523.84 2287.84,2520.25 2287.84,2531.48C2287.84,2536 2283.32,2538.08 2278.8,2538.08C2272.43,2538.08 2267.45,2535.88 2261.2,2531.13C2260.28,2530.32 2247.74,2521.25 2241.85,2503.82L2241.85,2503.82ZM2201.58,2537.5C2189.3,2537.5 2179.68,2527.66 2179.68,2515.03C2179.68,2502.3 2189.3,2492.45 2201.58,2492.45C2213.85,2492.45 2223.46,2502.3 2223.46,2515.03C2223.46,2527.66 2213.85,2537.5 2201.58,2537.5Z" style="fill:white;fill-rule:nonzero;"/>
            </g>
        </g>
    </g>
    <defs>
        <linearGradient id="_Linear1" x1="0" y1="0" x2="1" y2="0" gradientUnits="userSpaceOnUse" gradientTransform="matrix(669.934,32.9303,-32.9303,669.934,2762.71,1944.01)"><stop offset="0" style="stop-color:rgb(153,0,213);stop-opacity:1"/><stop offset="0.3" style="stop-color:rgb(94,155,252);stop-opacity:1"/><stop offset="0.61" style="stop-color:rgb(245,96,225);stop-opacity:1"/><stop offset="1" style="stop-color:rgb(255,240,0);stop-opacity:1"/></linearGradient>
    </defs>
</svg>
