<?xml version="1.0" encoding="UTF-8" standalone="no"?>
<!DOCTYPE svg PUBLIC "-//W3C//DTD SVG 1.1//EN" "http://www.w3.org/Graphics/SVG/1.1/DTD/svg11.dtd">
<svg width="100%" height="100%" viewBox="0 0 105 76" version="1.1" xmlns="http://www.w3.org/2000/svg" xmlns:xlink="http://www.w3.org/1999/xlink" xml:space="preserve" xmlns:serif="http://www.serif.com/" style="fill-rule:evenodd;clip-rule:evenodd;stroke-linejoin:round;stroke-miterlimit:2;">
    <g transform="matrix(0.48,0,0,0.48,-879.156,-1216.16)">
        <g transform="matrix(1,0,0,1.39534,0,0)">
            <g transform="matrix(1,0,0,0.71667,0,0)">
                <path d="M1869.61,2644.39C1869.16,2646.78 1868.92,2649.24 1868.92,2651.77C1868.92,2673.53 1886.63,2690.93 1908.17,2690.93C1918.57,2690.93 1928.07,2686.88 1935.12,2680.23C1940.67,2685.62 1950.27,2690.93 1960.97,2690.93C1975.66,2690.93 1991.37,2681.54 1991.37,2663.26C1991.37,2653.75 1987.79,2647.61 1982.72,2643.36L1982.92,2643.11C1985.36,2644.4 1988.24,2645.05 1991.45,2645.05C1991.45,2645.05 2007.19,2645.05 2007.19,2645.05C2013.25,2645.05 2019.01,2642.01 2022.21,2636.7L2049,2552.11C2049.56,2547.63 2048.26,2543.86 2046.35,2540.98C2043.77,2537.12 2039.5,2533.68 2032.42,2533.68L2015.41,2533.68C2007.31,2533.68 2000.88,2537.58 1998.73,2546.54C1998.73,2546.52 1998.15,2548.64 1998.15,2548.64C1998.15,2548.64 1997.29,2545.81 1997.29,2545.81C1997.16,2545.41 1997.02,2545 1996.86,2544.61C1995.16,2540.34 1992.94,2538.16 1990.38,2536.46C1989.86,2536.11 1989.31,2535.79 1988.75,2535.51C1987.01,2534.64 1984.41,2533.68 1980.92,2533.68C1980.92,2533.68 1965.3,2533.68 1965.3,2533.68C1962.3,2533.68 1960.3,2534.18 1958.31,2535.1C1953.17,2537.28 1950.01,2540.55 1948.71,2546.55C1948.71,2546.54 1948.18,2548.26 1948.18,2548.26C1948.18,2548.26 1947.67,2546.34 1947.67,2546.34C1947.59,2546.04 1947.5,2545.74 1947.4,2545.44C1945.93,2541.01 1943.37,2538.3 1940.54,2536.45C1937.88,2534.71 1934.74,2533.68 1931.04,2533.68C1931.04,2533.68 1914.03,2533.68 1914.03,2533.68C1913.48,2533.68 1912.94,2533.7 1912.42,2533.74C1911.92,2533.7 1911.4,2533.68 1910.88,2533.68L1894.56,2533.68C1889.55,2533.68 1885.5,2535.68 1882.57,2538.6C1881.45,2539.72 1880.47,2541.01 1879.68,2542.46C1878.89,2541.01 1877.91,2539.72 1876.79,2538.6C1873.86,2535.68 1869.81,2533.68 1864.8,2533.68C1864.8,2533.68 1848.48,2533.68 1848.48,2533.68C1843.47,2533.68 1839.42,2535.68 1836.49,2538.6C1833.57,2541.53 1831.57,2545.58 1831.57,2550.59L1831.57,2628.14C1831.57,2633.16 1833.57,2637.2 1836.49,2640.13C1839.42,2643.06 1843.47,2645.05 1848.48,2645.05C1848.48,2645.05 1864.8,2645.05 1864.8,2645.05C1866.52,2645.05 1868.12,2644.82 1869.61,2644.39Z" style="fill:url(#_Linear1);"/>
            </g>
        </g>
        <g transform="matrix(1,0,0,1.39534,0,0)">
            <g transform="matrix(1,0,0,0.71667,0,0)">
                <path d="M1892.83,2615.63C1897.55,2613.63 1902.74,2612.52 1908.17,2612.52C1909.67,2612.52 1911.15,2612.61 1912.61,2612.77L1912.61,2568.13C1912.61,2564.56 1917.31,2565.39 1917.69,2566.66C1921.11,2578.32 1931.08,2610.4 1935.05,2623.16C1935.5,2623.58 1935.94,2624.02 1936.37,2624.46C1941.64,2616.76 1950.94,2612.52 1960.58,2612.52C1961.03,2612.52 1961.47,2612.53 1961.91,2612.54L1973.17,2578.6L1989.6,2628.49C1989.83,2629.42 1990.53,2629.88 1991.45,2629.88L2007.19,2629.88C2008.12,2629.88 2009.05,2629.42 2009.39,2628.49L2033.81,2550.82C2034.16,2549.66 2033.69,2548.85 2032.42,2548.85L2015.41,2548.85C2014.48,2548.85 2013.67,2549.2 2013.44,2550.24L2008.47,2568.52L2021.7,2571.93L2006.65,2575.17L1998.98,2603.37L1982.77,2550.24C1982.54,2549.66 1982.31,2549.31 1981.96,2549.08C1981.73,2548.97 1981.38,2548.85 1980.92,2548.85L1965.3,2548.85C1964.95,2548.85 1964.72,2548.85 1964.49,2548.97C1963.91,2549.2 1963.56,2549.55 1963.45,2550.24L1952.92,2584.51L1964.93,2584.97L1951.43,2589.37L1947.13,2603.37L1933.01,2554.03C1932.66,2552.99 1926.73,2539.76 1907.82,2550.84C1907.82,2550.84 1894.56,2556.8 1894.56,2556.8C1893.52,2556.8 1892.83,2557.49 1892.83,2558.53L1892.83,2581.62L1882.81,2581.62L1865.61,2590.8L1873.03,2581.62L1866.53,2581.62L1866.53,2550.59C1866.53,2549.55 1865.84,2548.85 1864.8,2548.85L1848.48,2548.85C1847.44,2548.85 1846.75,2549.55 1846.75,2550.59L1846.75,2628.14C1846.75,2629.19 1847.44,2629.88 1848.48,2629.88L1864.8,2629.88C1865.84,2629.88 1866.53,2629.19 1866.53,2628.14L1866.53,2598.97L1875.59,2598.97L1892.74,2589.88L1886.78,2598.97L1892.83,2598.97L1892.83,2615.63Z" style="fill:white;fill-rule:nonzero;"/>
            </g>
        </g>
        <g transform="matrix(1,0,0,1.39534,0,0)">
            <g transform="matrix(0.688954,0,0,0.493752,391.386,658.637)">
                <path d="M2241.85,2503.82C2236.94,2486.08 2220.67,2473.24 2201.58,2473.24C2178.64,2473.24 2159.79,2491.76 2159.79,2515.03C2159.79,2538.2 2178.64,2556.71 2201.58,2556.71C2218.62,2556.71 2233.41,2546.48 2239.88,2531.72C2244.79,2537.85 2249.48,2543.55 2249.75,2543.87C2255.07,2550 2265.94,2556.71 2278.22,2556.71C2291.89,2556.71 2307.16,2548.72 2307.16,2531.71C2307.16,2503.22 2270.57,2509.01 2270.57,2497.55C2270.57,2494.77 2272.89,2491.87 2278.34,2491.87C2283.32,2491.87 2286.8,2493.49 2292.7,2497.31C2293.62,2497.89 2294.43,2497.78 2295.13,2496.85L2303.57,2486.32C2304.15,2485.39 2304.15,2484.7 2303.34,2483.89C2296.4,2477.53 2288.42,2473.24 2277.64,2473.24C2264.33,2473.24 2251.25,2481.69 2251.25,2497.08C2251.25,2523.84 2287.84,2520.25 2287.84,2531.48C2287.84,2536 2283.32,2538.08 2278.8,2538.08C2272.43,2538.08 2267.45,2535.88 2261.2,2531.13C2260.28,2530.32 2247.74,2521.25 2241.85,2503.82L2241.85,2503.82ZM2201.58,2537.5C2189.3,2537.5 2179.68,2527.66 2179.68,2515.03C2179.68,2502.3 2189.3,2492.45 2201.58,2492.45C2213.85,2492.45 2223.46,2502.3 2223.46,2515.03C2223.46,2527.66 2213.85,2537.5 2201.58,2537.5Z" style="fill:white;fill-rule:nonzero;"/>
            </g>
        </g>
    </g>
    <defs>
        <linearGradient id="_Linear1" x1="0" y1="0" x2="1" y2="0" gradientUnits="userSpaceOnUse" gradientTransform="matrix(217.555,0,0,157.255,1831.57,2612.3)"><stop offset="0" style="stop-color:rgb(153,0,213);stop-opacity:1"/><stop offset="0.3" style="stop-color:rgb(94,155,252);stop-opacity:1"/><stop offset="0.61" style="stop-color:rgb(245,96,225);stop-opacity:1"/><stop offset="1" style="stop-color:rgb(255,240,0);stop-opacity:1"/></linearGradient>
    </defs>
</svg>
